<?xml version="1.0" standalone="no"?>
<!DOCTYPE svg PUBLIC "-//W3C//DTD SVG 20010904//EN"
 "http://www.w3.org/TR/2001/REC-SVG-20010904/DTD/svg10.dtd">
<svg version="1.0" xmlns="http://www.w3.org/2000/svg"
 width="16.000000pt" height="16.000000pt" viewBox="0 0 16.000000 16.000000"
 preserveAspectRatio="xMidYMid meet">
<metadata>
Created by potrace 1.11, written by Peter Selinger 2001-2013
</metadata>
<g transform="translate(0.000000,16.000000) scale(0.001563,-0.001563)"
fill="#000000" stroke="none">
<path d="M2565 10225 c-342 -64 -625 -331 -716 -676 -21 -78 -22 -110 -25
-422 -1 -187 -5 -341 -8 -344 -3 -3 -193 -7 -423 -8 -230 -2 -425 -5 -433 -7
-8 -2 -31 -8 -50 -12 -142 -33 -309 -149 -409 -285 -50 -68 -86 -139 -118
-232 -17 -52 -18 -197 -20 -3829 -3 -3644 -2 -3777 16 -3846 71 -274 302 -498
565 -549 104 -21 8250 -21 8341 -1 227 51 427 214 525 430 63 138 58 -156 58
3951 0 3639 0 3752 -19 3823 -68 264 -273 467 -549 543 -32 9 -165 13 -463 15
-230 0 -420 3 -422 6 -3 3 -6 144 -7 315 -1 326 -9 407 -49 524 -64 187 -192
351 -364 467 -90 61 -141 85 -251 119 l-89 27 -345 0 -345 0 -87 -27 c-163
-50 -283 -122 -396 -235 -105 -106 -182 -229 -224 -356 -38 -116 -46 -198 -47
-520 -1 -171 -4 -312 -6 -315 -7 -6 -2174 -5 -2181 1 -3 3 -7 161 -8 350 -3
312 -5 350 -24 420 -82 301 -312 548 -597 641 -120 39 -127 40 -455 42 -220 2
-325 -1 -375 -10z m597 -726 c47 -12 103 -68 115 -116 5 -23 9 -388 8 -898 -1
-793 -2 -862 -18 -892 -19 -35 -69 -77 -106 -88 -13 -4 -124 -7 -245 -8 -193
0 -226 2 -259 18 -45 21 -81 66 -94 115 -5 20 -9 413 -8 890 1 787 2 858 18
887 23 43 65 82 102 93 40 12 440 11 487 -1z m4398 -3 c41 -18 76 -49 96 -86
17 -33 18 -81 18 -911 l1 -876 -28 -41 c-15 -24 -45 -51 -70 -63 -39 -21 -56
-22 -268 -22 -242 0 -269 5 -317 56 -49 52 -48 46 -47 962 l0 860 25 43 c25
44 55 69 99 82 42 13 460 9 491 -4z m1552 -2915 l26 -1 -1 -2922 -2 -2923
-4022 -2 -4023 -2 0 2924 0 2924 28 3 c22 2 7906 1 7994 -1z"/>
<path d="M7385 5300 c-16 -4 -41 -12 -55 -19 -14 -7 -600 -587 -1302 -1289
l-1278 -1277 -637 637 c-351 350 -652 643 -670 652 -40 20 -125 21 -161 2 -37
-20 -323 -308 -344 -348 -23 -42 -22 -102 1 -153 27 -57 1681 -1709 1736
-1734 22 -10 54 -17 70 -16 92 5 18 -66 1589 1503 989 988 1494 1500 1506
1525 15 33 17 64 11 141 -1 18 -309 338 -342 357 -29 15 -93 25 -124 19z"/>
</g>
</svg>
