<?xml version="1.0" encoding="UTF-8"?>
<svg width="514px" height="113px" viewBox="0 0 514 113" version="1.1" xmlns="http://www.w3.org/2000/svg" xmlns:xlink="http://www.w3.org/1999/xlink">
    <!-- Generator: Sketch 42 (36781) - http://www.bohemiancoding.com/sketch -->
    <title>Group</title>
    <desc>Created with Sketch.</desc>
    <defs></defs>
        <g id="Group" fill-rule="nonzero">
            <polygon id="Shape" points="84.7 84.795 79.262 109.971 0.903 109.971 24.381 0.581 102.842 0.581 97.691 24.542 50.03 24.542 46.382 41.686 84.7 41.686 79.56 65.413 41.31 65.413 37.173 84.795"></polygon>
            <polygon id="Shape" points="188.847 29.035 158.492 66.437 176.748 109.971 144.236 109.971 134.189 85.11 113.765 109.971 88.111 109.971 124.111 66.825 108.55 29.035 140.364 29.035 148.583 48.292 163.947 29.035"></polygon>
            <path d="M263.658,109.971 L232.869,109.971 C232.796,108.408 232.784,107.159 232.835,106.188 C232.974,103.468 233.325,100.256 233.91,96.541 C227.201,106.721 218.314,111.811 207.259,111.811 C199.775,111.811 193.84,109.597 189.45,105.158 C185.069,100.724 183.048,95.168 183.4,88.488 C183.657,83.522 185.134,78.964 187.843,74.826 C190.549,70.684 194.254,67.385 198.957,64.928 C203.64,62.472 208.399,60.856 213.21,60.081 C218.031,59.309 227.427,58.255 241.401,56.917 C242.157,54.938 242.777,51.466 242.836,50.343 C243.073,45.91 240.163,43.693 234.14,43.693 C228.215,43.693 223.697,46.712 220.582,52.754 L195.023,49.307 C202.307,34.294 216.973,26.792 239.046,26.792 C250.209,26.792 258.873,28.782 265.052,32.761 C271.234,36.735 274.124,42.604 273.722,50.344 C273.536,53.819 271.023,66.105 266.189,87.209 C264.371,95.057 263.384,100.266 263.253,102.835 C263.148,104.915 263.281,107.292 263.658,109.971 M238.353,70.519 C223.999,71.649 216.225,77.314 215.791,85.603 C215.555,90.141 217.743,92.42 222.363,92.42 C225.319,92.42 228.406,91.123 231.444,88.321 C234.507,85.495 237.102,79.011 238.353,70.519" id="Shape"></path>
            <path d="M376.516,0.581 L353.024,109.972 L325.077,109.972 L327.649,97.729 C320.686,107.489 312.647,112.371 303.516,112.371 C296.391,112.371 290.426,109.493 285.592,103.713 C280.756,97.946 278.606,89.691 279.174,78.957 C279.865,65.646 284.061,53.626 291.74,42.892 C299.422,32.157 308.83,26.789 319.943,26.789 C329.447,26.789 335.658,30.639 338.584,38.33 L346.656,0.582 L376.516,0.582 L376.516,0.581 Z M334.318,57.265 C334.664,53.258 334.136,50.637 332.705,49.107 C331.277,47.579 329.504,46.821 327.391,46.821 C322.309,46.821 318.426,50.854 315.76,58.914 C313.092,66.973 311.625,73.669 311.34,79.009 C310.977,86.028 313.449,89.541 318.742,89.541 C323.99,89.541 327.666,86.035 329.763,79.016 C329.764,79.015 333.973,61.271 334.318,57.265 L334.318,57.265 Z" id="Shape"></path>
            <path d="M456.814,75.428 L402.593,75.428 C402.236,77.629 402.003,79.265 401.945,80.335 C401.761,83.882 402.736,86.647 404.834,88.637 C406.936,90.627 409.674,91.607 413.049,91.607 C419.432,91.607 422.979,90.106 425.985,83.254 L453.626,85.232 C449.782,93.16 443.667,100.112 435.753,105.012 C427.845,109.925 419.208,112.368 409.866,112.368 C398.11,112.368 388.79,108.932 381.856,102.075 C374.911,95.212 371.764,85.846 372.383,73.983 C373.055,61.116 377.944,50.072 387.049,40.849 C396.139,31.621 407.658,27.023 421.57,27.023 C433.359,27.023 442.558,30.597 449.154,37.743 C455.767,44.894 458.759,54.388 458.142,66.226 C458.006,68.9 457.574,71.961 456.814,75.428 Z M429.281,59.869 C429.623,58.221 429.83,56.943 429.873,56.023 C430.027,53.146 429.262,50.643 427.646,48.496 C426.019,46.368 423.642,45.298 420.529,45.298 C417.224,45.298 414.129,46.593 411.299,49.181 C408.461,51.77 406.621,55.344 405.754,59.869 L429.281,59.869 Z" id="Shape"></path>
            <polygon id="Shape" points="513.787 0.581 490.314 109.971 460.371 109.971 483.867 0.581"></polygon>
        </g>
</svg>