<?xml version="1.0" encoding="UTF-8"?>
<svg width="110px" height="154px" viewBox="0 0 110 154" version="1.1" xmlns="http://www.w3.org/2000/svg" xmlns:xlink="http://www.w3.org/1999/xlink">
    <!-- Generator: Sketch 42 (36781) - http://www.bohemiancoding.com/sketch -->
    <title>Combined Shape</title>
    <desc>Created with Sketch.</desc>
    <defs></defs>
        <path d="M92.9919799,15 L17.0072242,15 C17.3720457,40.1739125 31.4801289,54.4543799 42.3976067,66.4613029 C44.3867805,69.7785343 46.3667258,73.5289364 46.3667258,77.5 C46.3667258,80.3047948 45.4593519,82.999508 43.984375,85.5092604 C32.4635155,98.1396467 16,115.805145 16,140 L94,140 C94,116.7152 79.5178104,97.8281609 68.203607,85.5092604 C66.1739006,82.4641376 64.3667258,81.049469 64.3667258,77.5 C64.3667258,72.5306122 65.8644143,70.3231254 68.203607,66.4613029 C78.7239419,54.9321059 92.6109104,38.5693554 92.9919799,15 Z M101.996382,15.0000166 C101.77923,44.8520447 91.8121905,56.4742465 79.2548828,66.4613029 C78.2812342,68.4923266 73.1552734,71.5 73.1552734,77.5 C73.1552734,81.7568359 76.1147461,84.3935547 77.2236328,85.5092604 C90.1191842,95.093363 102,108.329483 102,140 L8,140 C8,108.334571 19.5834581,95.2622672 32.5205078,85.5092604 C33.9848633,84.4941406 36.6469727,82.0688477 36.6469727,77.5 C36.6469727,71.2880859 31.9360158,67.915225 30.9331055,66.4613029 C18.3945833,56.4354246 8.22669647,44.6623549 8.00373832,15 L4.99422945,15 C2.23599269,15 0,12.6066192 0,9.64818313 L0,5.35181687 C0,2.39609003 2.24713778,0 4.99422945,0 L105.005771,0 C107.764007,0 110,2.39338084 110,5.35181687 L110,9.64818313 C110,12.60391 107.752862,15 105.005771,15 L101.996383,15 Z M51.4277649,109.362928 L52.3641553,68.8756786 C46.3242786,59.9830102 32,44.5242141 32,39 L78,39 C78,44.4385816 63.7762794,59.8461353 57.6998681,68.7725621 L58.7409917,109.450484 L82.4833984,120.402507 L84.1054688,133.106772 L26,133.106772 L28.1201172,120.402507 L51.4277649,109.362928 Z M0,144.995029 C0,142.236351 2.24713778,140 4.99422945,140 L105.005771,140 C107.764007,140 110,142.233822 110,144.995029 L110,149.004971 C110,151.763649 107.752862,154 105.005771,154 L4.99422945,154 C2.23599269,154 0,151.766178 0,149.004971 L0,144.995029 Z" id="Combined-Shape"></path>
</svg>