<?xml version="1.0" encoding="UTF-8"?>
<svg width="154px" height="154px" viewBox="0 0 154 154" version="1.1" xmlns="http://www.w3.org/2000/svg" xmlns:xlink="http://www.w3.org/1999/xlink">
    <!-- Generator: Sketch 42 (36781) - http://www.bohemiancoding.com/sketch -->
    <title>Group</title>
    <desc>Created with Sketch.</desc>
    <defs></defs>
    <g id="Page-1" stroke="none" stroke-width="1" fill="none" fill-rule="evenodd">
        <g id="Group" fill="#2D6E24">
            <path d="M77,154 C34.4740743,154 0,119.525926 0,77 C0,34.4740743 34.4740743,0 77,0 C119.525926,0 154,34.4740743 154,77 C154,119.525926 119.525926,154 77,154 Z M67.752983,85.247017 L47.7520248,65.2460589 C45.4052375,62.8992716 41.6056454,62.9003205 39.2614813,65.2444846 L33.2444846,71.2614813 C30.8964017,73.6095642 30.9010253,77.4069912 33.2460589,79.7520248 L56.0557797,102.561746 C56.3424328,103.168271 56.7366064,103.736606 57.2382138,104.238214 L61.4897083,108.489708 C63.63539,110.63539 67.0269116,110.81232 69.380702,109.003168 C69.6903732,108.792966 69.9847625,108.550641 70.2592032,108.2762 L76.2761999,102.259203 C76.4744548,102.060948 76.6559375,101.852361 76.8206555,101.635189 L120.484788,57.9710566 C122.831709,55.6241347 122.830409,51.8304091 120.489708,49.4897083 L116.238214,45.2382138 C113.905499,42.9054985 110.100284,42.899716 107.756866,45.2431345 L67.752983,85.247017 Z" id="Combined-Shape"></path>
        </g>
    </g>
</svg>